<?xml version="1.0" ?><svg height="48" viewBox="0 0 48 48" width="48" xmlns="http://www.w3.org/2000/svg"><defs><style>.cls-1{fill:#fed049;}.cls-2{fill:#f6b445;}.cls-3{fill:#d0d7df;}.cls-4{fill:#474c54;}</style></defs><title/><g data-name="5-Credit Card" id="_5-Credit_Card"><path class="cls-1" d="M47,36a4,4,0,0,1-4,4H5a4,4,0,0,1-4-4V12A4,4,0,0,1,5,8H43a4,4,0,0,1,4,4V36Z"/><rect class="cls-2" height="5" width="36" x="6" y="29"/><rect class="cls-3" height="4" rx="1" ry="1" width="8" x="34" y="14"/><circle class="cls-3" cx="9" cy="16" r="3"/><path class="cls-4" d="M47,31a1,1,0,0,0,1-1V12a5.006,5.006,0,0,0-5-5H5a5.006,5.006,0,0,0-5,5V36a5.006,5.006,0,0,0,5,5H43a5.006,5.006,0,0,0,5-5V34a1,1,0,0,0-1-1H6a1,1,0,0,0,0,2H46v1a3,3,0,0,1-3,3H5a3,3,0,0,1-3-3V12A3,3,0,0,1,5,9H43a3,3,0,0,1,3,3V30A1,1,0,0,0,47,31Z"/><path class="cls-4" d="M13,16a4,4,0,1,0-4,4A4,4,0,0,0,13,16ZM9,18a2,2,0,1,1,2-2A2,2,0,0,1,9,18Z"/><path class="cls-4" d="M43,15a2,2,0,0,0-2-2H35a2,2,0,0,0-2,2v2a2,2,0,0,0,2,2h6a2,2,0,0,0,2-2Zm-2,2-6,0V15h6Z"/><path class="cls-4" d="M6,28a1,1,0,0,0,0,2H9a1,1,0,0,0,0-2Z"/><path class="cls-4" d="M32,28a1,1,0,0,0,0,2h3a1,1,0,0,0,0-2Z"/><path class="cls-4" d="M39,28a1,1,0,0,0,0,2h3a1,1,0,0,0,0-2Z"/><path class="cls-4" d="M13,30H28a1,1,0,0,0,0-2H13a1,1,0,0,0,0,2Z"/></g></svg>