<?xml version="1.0" ?><!DOCTYPE svg  PUBLIC '-//W3C//DTD SVG 1.1//EN'  'http://www.w3.org/Graphics/SVG/1.1/DTD/svg11.dtd'><svg enable-background="new 0 0 512 512" height="512px" id="Calque_1" version="1.1" viewBox="0 0 512 512" width="512px" xml:space="preserve" xmlns="http://www.w3.org/2000/svg" xmlns:xlink="http://www.w3.org/1999/xlink"><g><g><g><g id="XMLID_1_"><g><path d="M415.36,101.39v75.51l-297.12-59.66c-6.65-1.34-13.12,2.97-14.46,9.62l-5.54,27.57h-0.01l-12.26,61.08       h0.01L63.03,329.77H50.21c-6.79,0-12.28-5.51-12.28-12.28v-216.1c0-6.77,5.49-12.28,12.28-12.28h352.87       C409.86,89.11,415.36,94.62,415.36,101.39z" fill="#303C44"/><path d="M464.21,186.71c6.65,1.33,10.96,7.81,9.62,14.46l-5.54,27.58h-0.02L98.24,154.43l5.54-27.57       c1.34-6.65,7.81-10.96,14.46-9.62l297.12,59.66L464.21,186.71z" fill="#FFC035"/><path d="M456.01,289.82l12.26-61.07h0.02l-37,184.27c-1.34,6.65-7.81,10.96-14.46,9.63L70.86,353.17       c-6.65-1.33-10.96-7.81-9.62-14.46l1.79-8.94l22.95-114.26L456.01,289.82z" fill="#FFC035"/><path d="M433.23,403.38l-1.94,9.64c-1.34,6.65-7.81,10.96-14.46,9.63L70.86,353.17       c-6.65-1.33-10.96-7.81-9.62-14.46l1.79-8.94l22.95-114.26l0.36,0.07L65.92,317.27l-1.79,8.94       c-1.34,6.65,2.97,13.13,9.62,14.46l345.97,69.48C425.36,411.28,430.87,408.35,433.23,403.38z" fill="#303C44" opacity="0.2"/><polygon fill="#303C44" opacity="0.2" points="468.29,228.75 458.55,277.25 458.53,277.25 468.27,228.75      "/><path d="M471.18,216.25l-37,184.27c-0.2,1.01-0.53,1.97-0.95,2.86l25.32-126.13l0.35,0.07       l12.26-61.07H471.18z" fill="#303C44" opacity="0.2"/><polygon fill="#526471" points="468.27,228.75 456.01,289.82 85.98,215.51 98.24,154.43      "/></g><g><path d="M63.03,329.77H50.21c-6.79,0-12.28-5.51-12.28-12.28v-216.1c0-6.77,5.49-12.28,12.28-12.28h352.87       c6.78,0,12.28,5.51,12.28,12.28v75.51" fill="none"/><path d="M468.29,228.75l-37,184.27c-1.34,6.65-7.81,10.96-14.46,9.63L70.86,353.17       c-6.65-1.33-10.96-7.81-9.62-14.46l1.79-8.94l22.95-114.26l12.26-61.08l5.54-27.57c1.34-6.65,7.81-10.96,14.46-9.62       l297.12,59.66l48.85,9.81c6.65,1.33,10.96,7.81,9.62,14.46L468.29,228.75z" fill="none"/><polygon fill="none" points="85.98,215.51 85.97,215.51 98.23,154.43 98.24,154.43 468.27,228.75 456.01,289.82      "/></g></g></g></g><linearGradient gradientUnits="userSpaceOnUse" id="SVGID_1_" x1="277.125" x2="277.125" y1="215.51" y2="289.82"><stop offset="0" style="stop-color:#000000"/><stop offset="1" style="stop-color:#FFFFFF;stop-opacity:0"/></linearGradient><polygon fill="url(#SVGID_1_)" opacity="0.2" points="468.27,228.75 456.01,289.82 85.98,215.51  "/></g></svg>