<svg xmlns="http://www.w3.org/2000/svg" width="45" height="46" viewBox="0 0 45 46"><g transform="translate(2)"><g transform="translate(-2 154.771)"><path d="M31.14-114.439c3.965,0,8.267,1.344,13.029,5.516.477.418,1.112-.1.7-.621-4.679-5.842-9.008-6.954-13.324-7.895a14.28,14.28,0,0,1-9.888-7.313c-.377-.642-.546-.528-.579.3a18.039,18.039,0,0,0,.257,3.657c-.213.01-.427.007-.642.007A13.6,13.6,0,0,1,7.012-134.314a13.6,13.6,0,0,1,13.676-13.523,13.6,13.6,0,0,1,13.676,13.523,13.508,13.508,0,0,1-.087,1.572,20.732,20.732,0,0,0-4.343-.08c-.519.044-.446.283-.054.353,4.521.808,7.627,3.578,8.337,8.606a.125.125,0,0,0,.23.05,20.192,20.192,0,0,0,2.929-10.5,20.573,20.573,0,0,0-20.688-20.457A20.573,20.573,0,0,0,0-134.314a20.574,20.574,0,0,0,20.689,20.458C23.72-113.857,26.727-114.439,31.14-114.439Zm1.54-7.427c.92.769,1.2,1.684.713,2.33a1.5,1.5,0,0,1-1.235.549,2.208,2.208,0,0,1-1.408-.5,1.941,1.941,0,0,1-.536-2.562,1.225,1.225,0,0,1,.976-.4A2.366,2.366,0,0,1,32.681-121.867Zm4.247-1.954c.135.9-.151,1.268-.439,1.268-.314,0-.708-.363-1.173-1.08a2.182,2.182,0,0,1-.4-1.93.65.65,0,0,1,.861-.241C36.545-125.519,36.847-124.357,36.927-123.821Z" fill="#f68b1e"/></g></g></svg>