<svg xmlns="http://www.w3.org/2000/svg" width="45" height="45" viewBox="0 0 45 45"><g transform="translate(0)"><path d="M21.94-463.759A22.138,22.138,0,0,0,4.482-454.7,22.4,22.4,0,0,0,8.924-423.38a22.078,22.078,0,0,0,13.551,4.616,21.02,21.02,0,0,0,13.062-4.394l.046.053,1.467-1.291-4.973-5.667L30-428.164c-1.092,1-2.15,1.964-3.178,2.958-1.666-1.9-3.353-3.783-5.042-5.663-.81-.909-1.623-1.815-2.433-2.728a1.911,1.911,0,0,1-.134-.161l2.375-2.22-6.118-6.912,2.394-2.243-6.214-6.923,8.46-7.645,3.124,3.378,5.175-4.6c.046.015.088.027.13.042L31.5-457.63l2.769-2.537a8.8,8.8,0,0,0-1.455-1.078.62.62,0,0,0-.313-.077A21.574,21.574,0,0,0,21.94-463.759Zm13.959,5.1-2.471,2.262,2.23,2.476,2.483-2.231Zm-7.528.665-3.823,3.477,3.441,3.829,3.819-3.454Zm-8.5,1.41-5.16,4.673,4.656,5.181,5.167-4.669Zm19.44,5.934L36.842-448.4l2.25,2.484,2.486-2.254Zm-7.238.783L28.253-446.4l3.441,3.836,3.827-3.462ZM23.7-447.394l-5.156,4.688,4.659,5.178,5.148-4.681Zm19.043,4.75-2.478,2.231,2.249,2.487L45-440.161Zm-7.238,1.322-3.819,3.454,3.441,3.844,3.827-3.47Zm-7.994,3.24-5.156,4.665L27-428.225l5.175-4.677Zm11.511,4.914-3.8,3.469,3.449,3.817,3.831-3.454Z" transform="translate(0 463.764)" fill="#56b0ff"/></g></svg>